<?xml version="1.0" encoding="utf-8"?>
<!-- Generator: Adobe Illustrator 22.0.1, SVG Export Plug-In . SVG Version: 6.00 Build 0)  -->
<svg version="1.1" id="Layer_1" xmlns="http://www.w3.org/2000/svg" xmlns:xlink="http://www.w3.org/1999/xlink" x="0px" y="0px"
	 viewBox="0 0 293.6 107" style="enable-background:new 0 0 293.6 107;" xml:space="preserve">
<style type="text/css">
	.st0{fill:#42DCA3;}
</style>
<path class="st0" d="M293.8,107H-0.5V0h294.3V107z M68.8,82.7H83L56.8,24.3H43.4L17.3,82.7h13.9l5.2-12.5h27.2L68.8,82.7z
	 M40.7,59.9L50,37.6l9.3,22.4H40.7z M88.1,83h13.1V20.8H88.1V83z M140,37.1c-6,0-10.9,1.9-14.1,5.8v-5.2h-12.4v61.1h13v-21
	c3.3,3.7,7.9,5.4,13.5,5.4c12.6,0,22.4-9,22.4-23.1C162.3,46.1,152.6,37.1,140,37.1z M137.7,72.7c-6.5,0-11.4-4.7-11.4-12.4
	c0-7.8,4.9-12.4,11.4-12.4c6.5,0,11.4,4.7,11.4,12.4C149.1,68,144.2,72.7,137.7,72.7z M198.5,37.2c-5.8,0-10.9,1.8-14.4,5.4V20.8
	h-13.1v62.1h13.1V60.6c0-8.3,4.5-12.1,10.9-12.1c5.8,0,9.2,3.3,9.2,10.6v23.8h13.1V57.1C217.2,43.4,209.2,37.2,198.5,37.2z
	 M247.1,37.2c-7.3,0-14.6,1.9-19.6,5.4l4.7,9.1c3.3-2.6,8.3-4.2,13.1-4.2c7.1,0,10.5,3.3,10.5,8.8h-10.5c-13.9,0-19.5,5.5-19.5,13.4
	c0,7.8,6.3,13.6,17,13.6c6.7,0,11.4-2.2,13.9-6.3v5.6H269V57.1C269,43.5,261,37.2,247.1,37.2z M246.1,74.6c-4.7,0-7.4-2.2-7.4-5.4
	c0-3,1.9-5.3,8.1-5.3h9.1v4.6C254.3,72.6,250.5,74.6,246.1,74.6z"/>
</svg>
